<?xml version="1.0" encoding="UTF-8"?>
<svg version="1.1" xmlns="http://www.w3.org/2000/svg" width="512" height="512">
<path d="M0 0 C0.70706002 -0.00235223 1.41412003 -0.00470446 2.14260611 -0.00712797 C4.52387555 -0.01381175 6.90509034 -0.01335994 9.28636837 -0.01294994 C11.00614837 -0.01624896 12.72592759 -0.01997461 14.44570583 -0.02409142 C19.1812907 -0.03411532 23.9168629 -0.03782885 28.65245688 -0.04048073 C33.75626294 -0.04438264 38.86005895 -0.05396108 43.9638586 -0.0626936 C56.29457119 -0.08246147 68.62528459 -0.09252474 80.95600906 -0.10142139 C86.76191935 -0.10580386 92.56782872 -0.11117078 98.37373829 -0.11641026 C117.67261122 -0.13342305 136.97148358 -0.14791732 156.27036285 -0.155159 C161.2791923 -0.15706891 166.28802173 -0.15898924 171.29685116 -0.16094494 C172.54178071 -0.16142868 173.78671027 -0.16191242 175.06936496 -0.16241082 C195.23727038 -0.17071145 215.4051165 -0.19604873 235.57299603 -0.22852562 C256.27613416 -0.26159279 276.97924216 -0.27960746 297.68240684 -0.28280324 C309.30757826 -0.28496867 320.93266319 -0.2937223 332.55780888 -0.31926441 C342.45822957 -0.34096672 352.35854279 -0.34902411 362.25898457 -0.33929763 C367.3094487 -0.33475157 372.35969104 -0.33665709 377.41012478 -0.35605907 C382.03734144 -0.37368149 386.66417437 -0.37270041 391.29139506 -0.35716178 C392.96172054 -0.35478432 394.63207253 -0.35911644 396.3023575 -0.37099043 C409.4094768 -0.45836623 419.86875856 1.24670481 430.01047421 10.13422108 C430.60473202 10.61246326 431.19898983 11.09070545 431.81125546 11.58343983 C438.27692853 17.27495249 443.26933895 26.66643889 445.01047421 35.13422108 C445.10049402 38.10883837 445.13664124 41.05934309 445.1239996 44.03363514 C445.12414562 44.93154774 445.12429165 45.82946033 445.1244421 46.75458241 C445.12374596 49.71969495 445.1159675 52.68474452 445.10813046 55.64984608 C445.10626522 57.70679153 445.10484181 59.76373742 445.10384274 61.82068348 C445.10002591 67.23266293 445.09020271 72.64461552 445.07913876 78.05658436 C445.06890672 83.5798554 445.06434127 89.10313079 445.05930233 94.62640858 C445.04857972 105.46235788 445.03151328 116.29828724 445.01047421 127.13422108 C443.59465305 127.14635136 443.59465305 127.14635136 442.15022945 127.15872669 C433.19265812 127.23669402 424.23522929 127.32455405 415.27784538 127.42174816 C410.67434714 127.47139101 406.07086836 127.51771982 401.46726131 127.55609608 C397.01267365 127.59335835 392.558263 127.63982037 388.10382938 127.69228458 C386.41648731 127.71061379 384.72910763 127.72579806 383.04170704 127.73756504 C357.44945121 127.92217706 334.41374352 131.94014101 315.01047421 150.13422108 C300.14827351 165.28308143 292.74085969 184.08045105 292.51047421 205.19672108 C292.71524923 223.94003492 299.30047213 242.14505391 312.01047421 256.13422108 C312.66402889 256.8792992 313.31758358 257.62437733 313.99094296 258.39203358 C326.84894411 272.21028619 345.74370154 280.46762316 364.53775692 281.43265247 C369.6814503 281.60861958 374.82519193 281.6284054 379.97141171 281.64593983 C381.85713497 281.66282364 383.74284723 281.68097872 385.62854671 281.70033741 C390.54384578 281.74744203 395.45910025 281.7775054 400.37454891 281.80377674 C405.40953026 281.83378393 410.44435842 281.88024393 415.47922421 281.9252367 C425.32289341 282.01081882 435.16659453 282.07836241 445.01047421 282.13422108 C445.10340572 294.33063911 445.17435655 306.52697205 445.21772289 318.72367287 C445.23854303 324.38791243 445.26675863 330.05190864 445.31223202 335.71600819 C445.35588875 341.1884565 445.37965318 346.66067165 445.38998318 352.13328075 C445.39733905 354.2147504 445.41170289 356.29620817 445.43339443 358.37757778 C445.58944103 373.97990668 444.54220775 386.85306377 433.42063046 398.84906483 C424.31088555 407.27289953 413.35574351 410.45363612 401.2471838 410.37473011 C400.28156802 410.37643896 399.31595224 410.37814781 398.32107538 410.37990844 C395.09515099 410.38319484 391.86943598 410.37221355 388.64353085 410.36127186 C386.32725689 410.36070756 384.01098257 410.36102467 381.69470882 410.36215687 C375.41223448 410.36273066 369.12983652 410.35097199 362.84737992 410.33700895 C356.27971391 410.32450605 349.71204615 410.32333144 343.14437008 410.32095814 C332.12275525 410.31578144 321.10116718 410.30295606 310.079566 410.28509998 C298.72930701 410.26673061 287.37905562 410.25257928 276.02878475 410.24408436 C274.97862741 410.24329619 274.97862741 410.24329619 273.90725476 410.24249209 C270.39489251 410.23988194 266.8825302 410.23735455 263.37016785 410.23486829 C234.25025177 410.2141485 205.13036336 410.178785 176.01047421 410.13422108 C178.23423262 406.20282173 180.40091885 402.48448993 183.13547421 398.88422108 C197.84499562 378.00619069 207.15975624 351.7620999 208.01047421 326.13422108 C208.06203671 324.92379139 208.11359921 323.7133617 208.16672421 322.46625233 C208.8866523 297.78045355 203.58950484 272.97278439 192.01047421 251.13422108 C191.67145077 250.48114979 191.33242733 249.8280785 190.98313046 249.15521717 C172.52492768 213.83615609 141.23444439 187.87447278 103.26047421 175.69672108 C65.51216648 164.28670221 25.14428291 168.22460343 -9.80202579 186.44672108 C-18.70650431 191.23458749 -26.97438233 196.97618546 -34.75515079 203.42718983 C-36.98952579 205.13422108 -36.98952579 205.13422108 -38.98952579 205.13422108 C-39.08311464 183.04588017 -39.15357621 160.95757212 -39.19677448 138.86907291 C-39.2173685 128.61217322 -39.2454285 118.35539698 -39.29128361 108.09857655 C-39.33124832 99.15502294 -39.35698157 90.21155878 -39.36587977 81.26791835 C-39.37107824 76.53566106 -39.38323022 71.80365958 -39.41244602 67.07148457 C-39.4397676 62.60961527 -39.44793725 58.1481051 -39.44195652 53.68616009 C-39.44304932 52.05604756 -39.45090297 50.42592195 -39.46634769 48.79588223 C-39.59538812 34.46365154 -37.300403 22.00035085 -27.17702579 11.20062733 C-19.2941688 3.8104489 -10.73822207 0.0152151 0 0 Z " fill="#ffffff" transform="translate(58.98952579498291,42.86577892303467)"/>
<path d="M0 0 C1.46979071 1.19437047 2.92787389 2.40326698 4.375 3.625 C5.17550781 4.29144531 5.97601563 4.95789063 6.80078125 5.64453125 C27.33983057 23.37263759 39.93314322 47.94097567 43.125 74.875 C43.23417881 76.45676132 43.31641131 78.04055806 43.375 79.625 C43.41496094 80.59179688 43.45492187 81.55859375 43.49609375 82.5546875 C44.13141156 113.12468581 33.04790662 140.75237693 12.09375 163 C-1.25226759 175.88581009 -16.93433775 184.36768823 -34.625 189.625 C-35.74519531 189.96660156 -36.86539063 190.30820312 -38.01953125 190.66015625 C-62.60354717 196.81331507 -90.34898331 193.55858037 -112.625 181.625 C-113.5634375 181.16351563 -114.501875 180.70203125 -115.46875 180.2265625 C-139.56932766 167.97317891 -156.74196546 145.19832024 -165.87109375 120.21484375 C-174.80629363 92.7546507 -172.53981701 62.58937346 -159.71826172 36.80126953 C-155.3359937 28.28461476 -150.05857522 20.74076509 -143.625 13.625 C-142.80386719 12.70976562 -141.98273438 11.79453125 -141.13671875 10.8515625 C-104.99150648 -27.38203982 -41.66722913 -31.54180107 0 0 Z M-49.125 65.1875 C-50.70566323 66.25660791 -52.28639361 67.32561655 -53.8671875 68.39453125 C-55.05199707 69.20011475 -55.05199707 69.20011475 -56.26074219 70.02197266 C-59.9088617 72.49549111 -63.57958598 74.93474539 -67.25 77.375 C-68.49230682 78.20294599 -69.73450669 79.0310525 -70.9765625 79.859375 C-71.85054687 80.44203125 -72.72453125 81.0246875 -73.625 81.625 C-75.93650397 79.37176924 -77.93045181 77.21773091 -79.875 74.625 C-83.52152037 70.27127568 -87.67980699 68.04574186 -93.3046875 67.2421875 C-99.55469473 66.98249191 -104.54862119 67.84937131 -109.625 71.625 C-113.66819825 75.57745315 -115.79453846 78.90282752 -116.0625 84.5625 C-115.9888979 89.05909252 -115.26396818 91.90776622 -113.0078125 95.7890625 C-112.46278076 96.73998779 -111.91774902 97.69091309 -111.35620117 98.6706543 C-110.78490479 99.64558838 -110.2136084 100.62052246 -109.625 101.625 C-109.08657471 102.57608643 -108.54814941 103.52717285 -107.9934082 104.50708008 C-106.37082259 107.37157245 -104.71996142 110.21806974 -103.0625 113.0625 C-102.51142578 114.02865234 -101.96035156 114.99480469 -101.39257812 115.99023438 C-97.8135885 122.11654758 -94.46260102 126.9540621 -87.625 129.625 C-74.64140338 131.84587837 -64.01809819 123.51069793 -53.75 116.625 C-51.7534746 115.30207084 -49.75605405 113.98049179 -47.7578125 112.66015625 C-46.74879883 111.99258301 -45.73978516 111.32500977 -44.70019531 110.63720703 C-41.65005397 108.64139368 -38.57800729 106.68621772 -35.4921875 104.74609375 C-34.01468018 103.81700195 -34.01468018 103.81700195 -32.50732422 102.86914062 C-30.63921999 101.69821302 -28.76859807 100.53128879 -26.89501953 99.36914062 C-15.80435306 92.59721775 -15.80435306 92.59721775 -9.625 81.625 C-8.89318745 75.14323169 -10.06427646 70.13869656 -13.625 64.625 C-17.35612825 60.60859433 -20.97123084 56.9932093 -26.640625 56.421875 C-27.37796875 56.40640625 -28.1153125 56.3909375 -28.875 56.375 C-29.60203125 56.34921875 -30.3290625 56.3234375 -31.078125 56.296875 C-37.97407432 57.18531019 -43.530694 61.35244801 -49.125 65.1875 Z " fill="#ffffff" transform="translate(180.625,276.375)"/>
<path d="M0 0 C1.51676094 0.00442278 3.03352651 0.00747595 4.55029297 0.00915527 C10.11172446 0.02474571 15.67305728 0.06662889 21.234375 0.10546875 C33.691875 0.16734375 46.149375 0.22921875 58.984375 0.29296875 C58.984375 25.70296875 58.984375 51.11296875 58.984375 77.29296875 C38.71160015 77.45340399 38.71160015 77.45340399 30.01757812 77.48828125 C24.10344953 77.5121197 18.18957051 77.54020893 12.27563477 77.59472656 C7.50343924 77.6384398 2.73151165 77.66215932 -2.04086876 77.67247772 C-3.85439962 77.67982362 -5.66791713 77.6941676 -7.48133278 77.71588898 C-22.05113236 77.88334253 -33.36080729 76.42448837 -44.578125 66.16796875 C-52.42393095 58.11340522 -54.36969578 48.84028134 -54.39624023 37.99975586 C-54.16785713 27.16705156 -49.97343708 19.20762127 -42.4609375 11.484375 C-30.04764979 0.36000694 -15.81606231 -0.15561796 0 0 Z " fill="#ffffff" transform="translate(443.015625,207.70703125)"/>
</svg>
