<svg width="222" height="41" viewBox="0 0 222 41" fill="none" xmlns="http://www.w3.org/2000/svg">
<path d="M50.7841 11.092H54.2489V16.6616C54.2489 17.1467 54.4431 17.5759 54.8314 17.949C55.2197 18.3129 55.7175 18.4948 56.3248 18.4948H70.6769L70.7068 18.4668V11.092H74.1866C74.6147 11.092 75.0428 11.2646 75.4709 11.6098C75.8791 11.983 76.0832 12.4448 76.0832 12.9952V28.7243C76.0832 29.3867 75.7796 29.9138 75.1722 30.3056C74.8437 30.4922 74.4952 30.5855 74.1268 30.5855H70.7068V25.5757C70.7068 25.1745 70.652 24.876 70.5425 24.6801C70.4828 24.5401 70.3932 24.3862 70.2737 24.2183C69.8555 23.7612 69.3229 23.5326 68.6757 23.5326H54.2489V30.5855H50.814C50.2664 30.5855 49.7885 30.3849 49.3803 29.9838C49.0318 29.6292 48.8576 29.1814 48.8576 28.6403V13.0512C48.8576 12.2769 49.216 11.6938 49.9329 11.3019C50.2316 11.162 50.5153 11.092 50.7841 11.092Z" fill="white"/>
<path d="M82.52 11.092H97.7831C100.471 11.092 102.721 11.6378 104.534 12.7293C104.842 12.8972 105.181 13.1351 105.549 13.443C107.033 14.7584 107.774 16.405 107.774 18.3828C107.774 20.0434 107.237 21.4662 106.161 22.651C105.883 22.9402 105.649 23.1501 105.459 23.2807C105.011 23.6352 104.623 23.8918 104.295 24.0504C102.492 25.0299 100.322 25.5197 97.7831 25.5197L86.2835 25.5757H85.9699V28.7523C85.9699 29.3494 85.6861 29.8531 85.1186 30.2636C84.7702 30.4782 84.3819 30.5855 83.9537 30.5855H80.5935V12.8972C80.5935 12.3841 80.8374 11.9177 81.3253 11.4979C81.6936 11.2273 82.0919 11.092 82.52 11.092ZM85.9699 16.1438V20.5519H98.1714C99.3363 20.5519 100.173 20.3233 100.68 19.8662C100.77 19.7822 100.865 19.6889 100.964 19.5863C101.243 19.2225 101.382 18.812 101.382 18.3549C101.382 17.4033 100.885 16.7409 99.8889 16.3677C99.4409 16.2185 98.8783 16.1438 98.2013 16.1438H85.9699Z" fill="white"/>
<path d="M112.434 11.092H115.884C115.884 11.148 115.879 11.1947 115.869 11.232C115.859 11.2506 115.854 11.2646 115.854 11.274V24.7361L115.884 24.764H115.854C115.874 24.7827 115.884 24.8014 115.884 24.82C115.884 24.8294 115.884 24.848 115.884 24.876V25.5477H135V28.6403C135 29.4986 134.582 30.1097 133.745 30.4735C133.517 30.5482 133.292 30.5855 133.073 30.5855H112.464C111.787 30.5855 111.234 30.3103 110.806 29.7599C110.627 29.4986 110.527 29.2374 110.507 28.9762V28.8363L110.477 12.8972C110.477 12.4401 110.672 12.0203 111.06 11.6378C111.458 11.274 111.916 11.092 112.434 11.092Z" fill="white"/>
<path d="M6.15353 26.1569C2.75503 22.9493 2.75503 17.7489 6.15353 14.5414L15.4071 5.80778C18.8056 2.60025 24.3156 2.60024 27.7141 5.80778L36.9677 14.5414C40.3662 17.7489 40.3662 22.9493 36.9677 26.1569L27.7142 34.8905C24.3157 38.098 18.8056 38.098 15.4071 34.8905L6.15353 26.1569Z" fill="#FF7A00"/>
<path d="M21.1454 31.7034C20.88 31.559 20.6436 31.4301 20.406 31.3018C19.8381 30.9949 19.274 30.6818 18.7004 30.3847C18.5402 30.3019 18.4851 30.2103 18.4863 30.0411C18.494 28.7731 18.4896 27.5057 18.4918 26.2378C18.4918 26.1043 18.4829 26.0002 18.3299 25.9185C16.6699 25.0309 15.0149 24.1346 13.3583 23.2413C13.3277 23.2247 13.2921 23.2165 13.2264 23.1927C13.2264 24.5936 13.2264 25.9754 13.2264 27.3857C13.1424 27.3551 13.0918 27.3427 13.0479 27.3189C12.2713 26.9007 11.493 26.4857 10.7242 26.0551C10.6391 26.0075 10.5673 25.8677 10.5673 25.771C10.5579 22.9939 10.5584 20.2169 10.5579 17.4398C10.5579 16.6118 10.5579 15.7843 10.5573 14.9562C10.5573 14.8656 10.5573 14.7746 10.5573 14.6338C10.9612 14.8491 11.3111 15.0354 11.661 15.2227C12.1099 15.4629 12.555 15.7102 13.0095 15.9416C13.1686 16.0223 13.2225 16.1175 13.2214 16.2868C13.2131 17.5547 13.2186 18.8221 13.2148 20.0901C13.2142 20.2288 13.2392 20.3245 13.3861 20.4032C15.0389 21.2861 16.6866 22.1762 18.336 23.0643C18.3739 23.0845 18.4145 23.1 18.4846 23.1316C18.4846 21.7187 18.4846 20.3354 18.4846 18.9179C18.5808 18.9567 18.6476 18.9764 18.7071 19.0084C19.4609 19.4121 20.2113 19.8199 20.9679 20.2195C21.1031 20.2909 21.1654 20.3659 21.1654 20.5196C21.1604 24.1848 21.1615 27.8504 21.1609 31.5155C21.1598 31.5647 21.1526 31.6139 21.1454 31.7034Z" fill="white"/>
<path d="M30.8962 14.6247C30.1513 15.0253 29.4571 15.3994 28.7617 15.7726C26.4631 17.0074 24.1639 18.2412 21.8675 19.4791C21.7262 19.5552 21.6177 19.5743 21.4658 19.4931C18.0585 17.6704 14.6484 15.8528 11.2388 14.0342C11.1782 14.0021 11.1192 13.9664 11.0269 13.9136C11.7612 13.5187 12.4816 13.1668 13.158 12.7538C13.5469 12.5168 13.825 12.5442 14.2178 12.758C16.5954 14.0544 18.9936 15.3182 21.3807 16.5996C21.5693 16.701 21.7078 16.7114 21.9053 16.6042C23.9425 15.4988 25.9874 14.4063 28.0263 13.304C28.1837 13.2191 28.2944 13.2196 28.4507 13.3055C29.2451 13.7439 30.0484 14.1693 30.8962 14.6247Z" fill="white"/>
<path fill-rule="evenodd" clip-rule="evenodd" d="M32.6588 15.2836C32.6588 14.99 32.3766 14.8652 32.1066 15.011C30.3305 15.9651 28.6385 16.8515 26.9417 17.7405C25.4087 18.5436 23.8718 19.3488 22.2654 20.2078C22.0913 20.3009 22.0479 20.4034 22.0479 20.5752C22.0516 23.5866 22.0515 26.5984 22.0513 29.6099C22.0513 30.2119 22.0513 30.8139 22.0513 31.4159V31.6974C22.0891 31.6791 22.1226 31.6633 22.153 31.6489C22.212 31.6211 22.2596 31.5986 22.3055 31.5737C22.5207 31.4575 22.7356 31.3407 22.9505 31.2239C23.4705 30.9414 23.9904 30.6589 24.5151 30.3839C24.6764 30.299 24.7276 30.2059 24.7265 30.0382C24.723 29.4845 24.723 28.9306 24.7229 28.3768C24.7228 27.68 24.7227 26.9833 24.7159 26.2866C24.7137 26.0755 24.7927 25.9663 24.9818 25.8649C26.224 25.1986 27.4648 24.5301 28.7056 23.8616C29.9465 23.193 31.1873 22.5245 32.4296 21.8582C32.607 21.7635 32.6632 21.6568 32.6627 21.4711C32.6577 19.8401 32.658 19.0065 32.6584 17.7734C32.6586 17.3635 32.6588 16.9095 32.6588 16.3674V15.2836ZM29.942 18.9615C29.9571 18.9582 29.9753 18.9541 29.998 18.9481C29.998 18.9482 29.998 18.9482 29.998 18.9482C29.9981 18.9482 29.9983 18.9482 29.9985 18.9481C29.9985 19.0574 29.9988 19.165 29.9992 19.2714C30.0003 19.575 30.0013 19.8684 29.9934 20.1612C29.9912 20.2321 29.9412 20.333 29.8794 20.3667C28.4502 21.1427 27.0178 21.9137 25.5554 22.7008C25.28 22.849 25.0036 22.9978 24.7258 23.1473C24.7258 23.147 24.7258 23.1466 24.7258 23.1463C24.7255 23.1464 24.7252 23.1466 24.7248 23.1468C24.7248 23.041 24.7246 22.9372 24.7244 22.8348C24.7236 22.4829 24.7229 22.1485 24.7315 21.8142C24.7332 21.766 24.8138 21.706 24.8722 21.6744C26.5428 20.7739 28.2151 19.876 29.8873 18.9781C29.9008 18.9707 29.917 18.9671 29.942 18.9615Z" fill="white"/>
<path opacity="0.7" d="M220.77 22.6499C220.717 22.7432 220.657 22.8099 220.59 22.8499C220.524 22.8899 220.44 22.9099 220.34 22.9099C220.227 22.9099 220.104 22.8766 219.97 22.8099C219.837 22.7366 219.68 22.6566 219.5 22.5699C219.32 22.4832 219.107 22.4066 218.86 22.3399C218.62 22.2666 218.337 22.2299 218.01 22.2299C217.744 22.2299 217.5 22.2632 217.28 22.3299C217.067 22.3899 216.884 22.4799 216.73 22.5999C216.584 22.7132 216.47 22.8499 216.39 23.0099C216.31 23.1632 216.27 23.3299 216.27 23.5099C216.27 23.7499 216.344 23.9499 216.49 24.1099C216.637 24.2699 216.83 24.4099 217.07 24.5299C217.31 24.6432 217.584 24.7466 217.89 24.8399C218.197 24.9332 218.51 25.0332 218.83 25.1399C219.15 25.2466 219.464 25.3699 219.77 25.5099C220.077 25.6499 220.35 25.8232 220.59 26.0299C220.83 26.2299 221.024 26.4766 221.17 26.7699C221.317 27.0566 221.39 27.4066 221.39 27.8199C221.39 28.2999 221.304 28.7432 221.13 29.1499C220.957 29.5566 220.704 29.9099 220.37 30.2099C220.037 30.5099 219.62 30.7432 219.12 30.9099C218.627 31.0766 218.06 31.1599 217.42 31.1599C217.067 31.1599 216.724 31.1266 216.39 31.0599C216.064 30.9999 215.75 30.9166 215.45 30.8099C215.157 30.6966 214.88 30.5632 214.62 30.4099C214.367 30.2566 214.14 30.0899 213.94 29.9099L214.44 29.0899C214.5 28.9899 214.574 28.9132 214.66 28.8599C214.754 28.7999 214.867 28.7699 215 28.7699C215.14 28.7699 215.277 28.8166 215.41 28.9099C215.55 28.9966 215.71 29.0932 215.89 29.1999C216.077 29.3066 216.3 29.4066 216.56 29.4999C216.82 29.5866 217.144 29.6299 217.53 29.6299C217.85 29.6299 218.127 29.5932 218.36 29.5199C218.594 29.4399 218.787 29.3332 218.94 29.1999C219.094 29.0666 219.207 28.9166 219.28 28.7499C219.354 28.5766 219.39 28.3932 219.39 28.1999C219.39 27.9399 219.317 27.7266 219.17 27.5599C219.024 27.3932 218.827 27.2499 218.58 27.1299C218.34 27.0099 218.064 26.9032 217.75 26.8099C217.444 26.7166 217.13 26.6166 216.81 26.5099C216.49 26.4032 216.174 26.2799 215.86 26.1399C215.554 25.9999 215.277 25.8232 215.03 25.6099C214.79 25.3899 214.597 25.1266 214.45 24.8199C214.304 24.5066 214.23 24.1266 214.23 23.6799C214.23 23.2732 214.31 22.8866 214.47 22.5199C214.637 22.1532 214.877 21.8299 215.19 21.5499C215.51 21.2699 215.9 21.0499 216.36 20.8899C216.827 20.7232 217.364 20.6399 217.97 20.6399C218.657 20.6399 219.28 20.7499 219.84 20.9699C220.4 21.1899 220.87 21.4899 221.25 21.8699L220.77 22.6499Z" fill="white"/>
<path opacity="0.7" d="M205.179 22.1499C205.399 21.9232 205.626 21.7199 205.859 21.5399C206.099 21.3532 206.353 21.1932 206.619 21.0599C206.886 20.9266 207.169 20.8232 207.469 20.7499C207.769 20.6766 208.096 20.6399 208.449 20.6399C209.009 20.6399 209.499 20.7332 209.919 20.9199C210.346 21.1066 210.703 21.3699 210.989 21.7099C211.283 22.0499 211.503 22.4599 211.649 22.9399C211.796 23.4132 211.869 23.9366 211.869 24.5099V30.9999H209.729V24.5099C209.729 23.8232 209.569 23.2899 209.249 22.9099C208.936 22.5299 208.456 22.3399 207.809 22.3399C207.329 22.3399 206.883 22.4499 206.469 22.6699C206.063 22.8899 205.679 23.1899 205.319 23.5699V30.9999H203.169V20.7999H204.469C204.763 20.7999 204.949 20.9366 205.029 21.2099L205.179 22.1499Z" fill="white"/>
<path opacity="0.7" d="M195.854 20.6399C196.607 20.6399 197.287 20.7632 197.894 21.0099C198.507 21.2566 199.027 21.6066 199.454 22.0599C199.887 22.5132 200.22 23.0632 200.454 23.7099C200.687 24.3566 200.804 25.0832 200.804 25.8899C200.804 26.6966 200.687 27.4232 200.454 28.0699C200.22 28.7166 199.887 29.2699 199.454 29.7299C199.027 30.1832 198.507 30.5332 197.894 30.7799C197.287 31.0266 196.607 31.1499 195.854 31.1499C195.094 31.1499 194.407 31.0266 193.794 30.7799C193.187 30.5332 192.667 30.1832 192.234 29.7299C191.8 29.2699 191.467 28.7166 191.234 28.0699C191 27.4232 190.884 26.6966 190.884 25.8899C190.884 25.0832 191 24.3566 191.234 23.7099C191.467 23.0632 191.8 22.5132 192.234 22.0599C192.667 21.6066 193.187 21.2566 193.794 21.0099C194.407 20.7632 195.094 20.6399 195.854 20.6399ZM195.854 29.4699C196.774 29.4699 197.457 29.1632 197.904 28.5499C198.357 27.9299 198.584 27.0466 198.584 25.8999C198.584 24.7532 198.357 23.8699 197.904 23.2499C197.457 22.6232 196.774 22.3099 195.854 22.3099C194.92 22.3099 194.227 22.6232 193.774 23.2499C193.32 23.8699 193.094 24.7532 193.094 25.8999C193.094 27.0466 193.32 27.9299 193.774 28.5499C194.227 29.1632 194.92 29.4699 195.854 29.4699Z" fill="white"/>
<path opacity="0.7" d="M188.426 31H186.276V22.49H181.306V28.28C181.306 28.6466 181.396 28.9266 181.576 29.12C181.756 29.3133 181.996 29.41 182.296 29.41C182.463 29.41 182.606 29.39 182.726 29.35C182.846 29.3033 182.95 29.2566 183.036 29.21C183.123 29.1566 183.196 29.11 183.256 29.07C183.323 29.0233 183.386 29 183.446 29C183.566 29 183.663 29.0666 183.736 29.2L184.376 30.25C184.043 30.5433 183.65 30.77 183.196 30.93C182.743 31.0833 182.276 31.16 181.796 31.16C180.95 31.16 180.296 30.9233 179.836 30.45C179.383 29.97 179.156 29.2966 179.156 28.43V22.49H178.036C177.916 22.49 177.813 22.4533 177.726 22.38C177.64 22.3 177.596 22.1833 177.596 22.03V21.16L179.246 20.92L179.716 17.97C179.75 17.8566 179.806 17.7666 179.886 17.7C179.966 17.6266 180.073 17.59 180.206 17.59H181.306V20.94H188.426V31ZM188.866 17.67C188.866 17.8633 188.826 18.0466 188.746 18.22C188.673 18.3866 188.57 18.5366 188.436 18.67C188.303 18.7966 188.146 18.9 187.966 18.98C187.793 19.0533 187.61 19.09 187.416 19.09C187.223 19.09 187.04 19.0533 186.866 18.98C186.7 18.9 186.55 18.7966 186.416 18.67C186.29 18.5366 186.186 18.3866 186.106 18.22C186.033 18.0466 185.996 17.8633 185.996 17.67C185.996 17.47 186.033 17.2833 186.106 17.11C186.186 16.93 186.29 16.7766 186.416 16.65C186.55 16.5166 186.7 16.4133 186.866 16.34C187.04 16.26 187.223 16.22 187.416 16.22C187.61 16.22 187.793 16.26 187.966 16.34C188.146 16.4133 188.303 16.5166 188.436 16.65C188.57 16.7766 188.673 16.93 188.746 17.11C188.826 17.2833 188.866 17.47 188.866 17.67Z" fill="white"/>
<path opacity="0.7" d="M175.827 22.7999C175.76 22.8866 175.697 22.9532 175.637 22.9999C175.577 23.0466 175.49 23.0699 175.377 23.0699C175.264 23.0699 175.144 23.0299 175.017 22.9499C174.897 22.8699 174.75 22.7832 174.577 22.6899C174.41 22.5899 174.207 22.4999 173.967 22.4199C173.727 22.3399 173.427 22.2999 173.067 22.2999C172.6 22.2999 172.19 22.3832 171.837 22.5499C171.49 22.7166 171.197 22.9566 170.957 23.2699C170.724 23.5766 170.547 23.9532 170.427 24.3999C170.314 24.8399 170.257 25.3366 170.257 25.8899C170.257 26.4632 170.32 26.9732 170.447 27.4199C170.574 27.8666 170.754 28.2432 170.987 28.5499C171.227 28.8566 171.514 29.0899 171.847 29.2499C172.187 29.4099 172.567 29.4899 172.987 29.4899C173.4 29.4899 173.737 29.4399 173.997 29.3399C174.257 29.2399 174.474 29.1299 174.647 29.0099C174.82 28.8899 174.967 28.7799 175.087 28.6799C175.214 28.5799 175.347 28.5299 175.487 28.5299C175.66 28.5299 175.794 28.5966 175.887 28.7299L176.497 29.5199C176.25 29.8199 175.977 30.0732 175.677 30.2799C175.377 30.4866 175.06 30.6566 174.727 30.7899C174.394 30.9166 174.047 31.0066 173.687 31.0599C173.327 31.1199 172.964 31.1499 172.597 31.1499C171.964 31.1499 171.37 31.0332 170.817 30.7999C170.27 30.5599 169.79 30.2166 169.377 29.7699C168.97 29.3166 168.647 28.7666 168.407 28.1199C168.174 27.4666 168.057 26.7232 168.057 25.8899C168.057 25.1366 168.164 24.4399 168.377 23.7999C168.59 23.1532 168.9 22.5966 169.307 22.1299C169.72 21.6632 170.23 21.2999 170.837 21.0399C171.444 20.7732 172.144 20.6399 172.937 20.6399C173.677 20.6399 174.327 20.7599 174.887 20.9999C175.454 21.2399 175.957 21.5799 176.397 22.0199L175.827 22.7999Z" fill="white"/>
<path opacity="0.7" d="M165.706 20.8V31H164.406C164.119 31 163.936 30.8634 163.856 30.59L163.696 29.64C163.483 29.8667 163.256 30.0734 163.016 30.26C162.783 30.4467 162.533 30.6067 162.266 30.74C161.999 30.8734 161.713 30.9767 161.406 31.05C161.106 31.1234 160.783 31.16 160.436 31.16C159.876 31.16 159.383 31.0667 158.956 30.88C158.529 30.6934 158.169 30.43 157.876 30.09C157.589 29.75 157.373 29.3434 157.226 28.87C157.079 28.39 157.006 27.8634 157.006 27.29V20.8H159.156V27.29C159.156 27.9767 159.313 28.51 159.626 28.89C159.946 29.27 160.429 29.46 161.076 29.46C161.549 29.46 161.989 29.3534 162.396 29.14C162.809 28.92 163.196 28.62 163.556 28.24V20.8H165.706Z" fill="white"/>
<path opacity="0.7" d="M151.33 25.5999L149.35 20.3399C149.19 19.9332 149.027 19.4165 148.86 18.7899C148.787 19.1032 148.707 19.3932 148.62 19.6599C148.533 19.9199 148.453 20.1499 148.38 20.3499L146.4 25.5999H151.33ZM155.76 30.9999H153.95C153.743 30.9999 153.577 30.9499 153.45 30.8499C153.323 30.7432 153.227 30.6132 153.16 30.4599L151.96 27.2799H145.76L144.56 30.4599C144.507 30.5932 144.413 30.7165 144.28 30.8299C144.147 30.9432 143.98 30.9999 143.78 30.9999H141.97L147.68 16.5999H150.05L155.76 30.9999Z" fill="white"/>
</svg>
