<svg width="32" height="40" viewBox="0 0 32 40" fill="none" xmlns="http://www.w3.org/2000/svg">
<path fill-rule="evenodd" clip-rule="evenodd" d="M8 20C8 24.4183 11.5817 28 16 28C20.4183 28 24 24.4183 24 20C24 15.5817 20.4183 12 16 12C11.5817 12 8 15.5817 8 20ZM16 11C11.0294 11 7 15.0294 7 20C7 24.9706 11.0294 29 16 29C20.9706 29 25 24.9706 25 20C25 15.0294 20.9706 11 16 11Z" fill="#2EBE7B"/>
<path fill-rule="evenodd" clip-rule="evenodd" d="M14.4467 16.9057L18.9467 16.9057C19.2228 16.9057 19.4467 17.1296 19.4467 17.4057L19.4467 21.9057C19.4467 22.1818 19.2228 22.4057 18.9467 22.4057C18.6705 22.4057 18.4467 22.1818 18.4467 21.9057L18.4467 18.6128L13.4329 23.6265L12.7258 22.9194L17.7396 17.9057L14.4467 17.9057C14.1705 17.9057 13.9467 17.6818 13.9467 17.4057C13.9467 17.1296 14.1705 16.9057 14.4467 16.9057Z" fill="#2EBE7B"/>
</svg>
