<svg width="24" height="25" viewBox="0 0 24 25" fill="none" xmlns="http://www.w3.org/2000/svg">
<g clip-path="url(#clip0_40_226)">
<path d="M2.21301 14.56C1.92542 13.2017 1.92542 11.7983 2.21301 10.44C3.32301 10.57 4.29301 10.203 4.60901 9.43901C4.92601 8.67401 4.50101 7.72901 3.62301 7.03601C4.38005 5.87233 5.37233 4.88005 6.53601 4.12301C7.22801 5.00001 8.17401 5.42601 8.93901 5.10901C9.70401 4.79201 10.071 3.82301 9.94001 2.71301C11.2983 2.42542 12.7017 2.42542 14.06 2.71301C13.93 3.82301 14.297 4.79301 15.061 5.10901C15.826 5.42601 16.771 5.00101 17.464 4.12301C18.6277 4.88005 19.62 5.87233 20.377 7.03601C19.5 7.72801 19.074 8.67401 19.391 9.43901C19.708 10.204 20.677 10.571 21.787 10.44C22.0746 11.7983 22.0746 13.2017 21.787 14.56C20.677 14.43 19.707 14.797 19.391 15.561C19.074 16.326 19.499 17.271 20.377 17.964C19.62 19.1277 18.6277 20.12 17.464 20.877C16.772 20 15.826 19.574 15.061 19.891C14.296 20.208 13.929 21.177 14.06 22.287C12.7017 22.5746 11.2983 22.5746 9.94001 22.287C10.07 21.177 9.70301 20.207 8.93901 19.891C8.17401 19.574 7.22901 19.999 6.53601 20.877C5.37233 20.12 4.38005 19.1277 3.62301 17.964C4.50001 17.272 4.92601 16.326 4.60901 15.561C4.29201 14.796 3.32301 14.429 2.21301 14.56ZM4.00001 12.71C5.10001 13.015 6.00701 13.712 6.45701 14.796C6.90601 15.881 6.75701 17.016 6.19501 18.008C6.29101 18.11 6.39001 18.209 6.49201 18.305C7.48501 17.743 8.61901 17.595 9.70401 18.043C10.788 18.493 11.485 19.4 11.79 20.5C11.93 20.504 12.07 20.504 12.21 20.5C12.515 19.4 13.212 18.493 14.296 18.043C15.381 17.594 16.516 17.743 17.508 18.305C17.61 18.209 17.709 18.11 17.805 18.008C17.243 17.015 17.095 15.881 17.543 14.796C17.993 13.712 18.9 13.015 20 12.71C20.004 12.57 20.004 12.43 20 12.29C18.9 11.985 17.993 11.288 17.543 10.204C17.094 9.11901 17.243 7.98401 17.805 6.99201C17.7086 6.8904 17.6096 6.79137 17.508 6.69501C16.515 7.25701 15.381 7.40501 14.296 6.95701C13.212 6.50701 12.515 5.60001 12.21 4.50001C12.07 4.4963 11.93 4.4963 11.79 4.50001C11.485 5.60001 10.788 6.50701 9.70401 6.95701C8.61901 7.40601 7.48401 7.25701 6.49201 6.69501C6.39001 6.79101 6.29101 6.89001 6.19501 6.99201C6.75701 7.98501 6.90501 9.11901 6.45701 10.204C6.00701 11.288 5.10001 11.985 4.00001 12.29C3.99601 12.43 3.99601 12.57 4.00001 12.71ZM12 15.5C11.2044 15.5 10.4413 15.1839 9.87869 14.6213C9.31608 14.0587 9.00001 13.2957 9.00001 12.5C9.00001 11.7044 9.31608 10.9413 9.87869 10.3787C10.4413 9.81608 11.2044 9.50001 12 9.50001C12.7957 9.50001 13.5587 9.81608 14.1213 10.3787C14.6839 10.9413 15 11.7044 15 12.5C15 13.2957 14.6839 14.0587 14.1213 14.6213C13.5587 15.1839 12.7957 15.5 12 15.5ZM12 13.5C12.2652 13.5 12.5196 13.3946 12.7071 13.2071C12.8946 13.0196 13 12.7652 13 12.5C13 12.2348 12.8946 11.9804 12.7071 11.7929C12.5196 11.6054 12.2652 11.5 12 11.5C11.7348 11.5 11.4804 11.6054 11.2929 11.7929C11.1054 11.9804 11 12.2348 11 12.5C11 12.7652 11.1054 13.0196 11.2929 13.2071C11.4804 13.3946 11.7348 13.5 12 13.5Z" fill="#6B7280"/>
</g>
<defs>
<clipPath id="clip0_40_226">
<rect width="24" height="24" fill="white" transform="translate(0 0.5)"/>
</clipPath>
</defs>
</svg>
