<svg width="32" height="40" viewBox="0 0 32 40" fill="none" xmlns="http://www.w3.org/2000/svg">
<path fill-rule="evenodd" clip-rule="evenodd" d="M8 20C8 24.4183 11.5817 28 16 28C20.4183 28 24 24.4183 24 20C24 15.5817 20.4183 12 16 12C11.5817 12 8 15.5817 8 20ZM16 11C11.0294 11 7 15.0294 7 20C7 24.9706 11.0294 29 16 29C20.9706 29 25 24.9706 25 20C25 15.0294 20.9706 11 16 11Z" fill="#DA5C54"/>
<path fill-rule="evenodd" clip-rule="evenodd" d="M19.3034 18.1749L19.6485 22.6616C19.6697 22.9369 19.4637 23.1773 19.1884 23.1985L14.7016 23.5436C14.4263 23.5648 14.1859 23.3588 14.1647 23.0834C14.1436 22.8081 14.3496 22.5677 14.6249 22.5466L17.9081 22.294L12.5246 17.6796L13.1754 16.9203L18.5589 21.5348L18.3064 18.2516C18.2852 17.9762 18.4912 17.7359 18.7665 17.7147C19.0419 17.6935 19.2822 17.8995 19.3034 18.1749Z" fill="#DA5C54"/>
</svg>
