<svg width="24" height="25" viewBox="0 0 24 25" fill="none" xmlns="http://www.w3.org/2000/svg">
<g clip-path="url(#clip0_40_253)">
<path d="M22 7.5H23V17.5H22V20.5C22 20.7652 21.8946 21.0196 21.7071 21.2071C21.5196 21.3946 21.2652 21.5 21 21.5H3C2.73478 21.5 2.48043 21.3946 2.29289 21.2071C2.10536 21.0196 2 20.7652 2 20.5V4.5C2 4.23478 2.10536 3.98043 2.29289 3.79289C2.48043 3.60536 2.73478 3.5 3 3.5H21C21.2652 3.5 21.5196 3.60536 21.7071 3.79289C21.8946 3.98043 22 4.23478 22 4.5V7.5ZM20 17.5H14C12.6739 17.5 11.4021 16.9732 10.4645 16.0355C9.52678 15.0979 9 13.8261 9 12.5C9 11.1739 9.52678 9.90215 10.4645 8.96447C11.4021 8.02678 12.6739 7.5 14 7.5H20V5.5H4V19.5H20V17.5ZM21 15.5V9.5H14C13.2044 9.5 12.4413 9.81607 11.8787 10.3787C11.3161 10.9413 11 11.7044 11 12.5C11 13.2956 11.3161 14.0587 11.8787 14.6213C12.4413 15.1839 13.2044 15.5 14 15.5H21ZM14 11.5H17V13.5H14V11.5Z" fill="#6B7280"/>
</g>
<defs>
<clipPath id="clip0_40_253">
<rect width="24" height="24" fill="white" transform="translate(0 0.5)"/>
</clipPath>
</defs>
</svg>
