<svg width="247" height="65" viewBox="0 0 247 65" fill="none" xmlns="http://www.w3.org/2000/svg">
<g clip-path="url(#clip0_270_1464)">
<path d="M145.018 62.8577V62.0429C145.562 62.0429 145.996 62.0157 146.322 61.9614C146.666 61.9071 146.929 61.7984 147.11 61.6355C147.309 61.4544 147.436 61.2009 147.49 60.875C147.562 60.5309 147.599 60.0873 147.599 59.5441V48.2723C147.599 47.6386 147.553 47.1678 147.463 46.8599C147.372 46.534 147.218 46.3077 147.001 46.1809C146.784 46.0361 146.503 45.9455 146.159 45.9093C145.815 45.8731 145.399 45.8007 144.91 45.692V44.85C145.272 44.9044 145.652 44.9406 146.051 44.9587C146.449 44.9587 146.856 44.9587 147.273 44.9587C147.816 44.9587 148.323 44.9496 148.794 44.9315C149.283 44.9134 149.753 44.8953 150.206 44.8772C150.677 44.841 151.157 44.8138 151.646 44.7957C152.153 44.7776 152.696 44.7686 153.275 44.7686C154.814 44.7686 156.182 44.9768 157.377 45.3933C158.572 45.8097 159.577 46.4073 160.391 47.1859C161.206 47.9645 161.822 48.9242 162.238 50.0649C162.673 51.1876 162.89 52.4551 162.89 53.8674C162.89 55.2436 162.682 56.4839 162.266 57.5885C161.849 58.693 161.188 59.6346 160.283 60.4132C159.396 61.1918 158.255 61.7984 156.861 62.233C155.466 62.6495 153.791 62.8577 151.836 62.8577H145.018ZM153.493 61.7984C155.629 61.7984 157.214 61.1647 158.246 59.8972C159.278 58.6115 159.794 56.6016 159.794 53.8674C159.794 51.1514 159.215 49.1505 158.056 47.8649C156.897 46.5612 155.222 45.9093 153.031 45.9093H151.944C151.619 45.9093 151.347 45.9274 151.13 45.9636C150.912 45.9817 150.74 46.0542 150.614 46.1809C150.487 46.2896 150.396 46.4525 150.342 46.6698C150.288 46.8871 150.26 47.1859 150.26 47.5661V59.7342C150.26 60.2231 150.297 60.6124 150.369 60.9021C150.46 61.1737 150.595 61.382 150.777 61.5268C150.976 61.6536 151.229 61.735 151.537 61.7713C151.845 61.7894 152.225 61.7984 152.678 61.7984H153.493Z" fill="white"/>
<path d="M121.723 62.8592V62.0444C123.443 62.0444 124.303 61.4197 124.303 60.1703V48.0837C124.303 46.4903 123.407 45.6936 121.614 45.6936V44.8516H129.463V45.6936C127.798 45.6936 126.965 46.4903 126.965 48.0837V60.1703C126.965 61.4197 127.834 62.0444 129.572 62.0444V62.8592H121.723Z" fill="white"/>
<path d="M97.7985 45.9108C96.531 45.9108 95.8972 46.2458 95.8972 46.9158V52.1578C95.8972 52.6648 96.1598 52.9183 96.6849 52.9183C97.9343 52.9183 98.9302 52.855 99.6726 52.7282C100.433 52.6015 101.013 52.4023 101.411 52.1307C101.827 51.841 102.099 51.4788 102.226 51.0442C102.352 50.5916 102.416 50.0483 102.416 49.4146C102.416 47.0788 101.23 45.9108 98.8577 45.9108H97.7985ZM101.384 53.2443C102.85 53.4616 104.027 53.9414 104.915 54.6838C105.802 55.4262 106.245 56.4221 106.245 57.6715C106.245 58.6493 106.083 59.4822 105.757 60.1703C105.431 60.8403 104.978 61.3835 104.399 61.7999C103.837 62.2164 103.158 62.5152 102.361 62.6963C101.583 62.8773 100.741 62.9679 99.8355 62.9679C98.3326 62.9679 96.8569 62.9498 95.4083 62.9135C93.9778 62.8773 92.3934 62.8592 90.6552 62.8592V62.0444C92.3753 62.0444 93.2354 61.5374 93.2354 60.5234V47.5948C93.2354 46.3273 92.3391 45.6936 90.5465 45.6936V44.8516H98.396C99.3557 44.8516 100.243 44.933 101.058 45.096C101.891 45.2409 102.606 45.4853 103.203 45.8294C103.801 46.1553 104.272 46.5899 104.616 47.1331C104.96 47.6582 105.132 48.31 105.132 49.0887C105.132 49.6862 105.041 50.2023 104.86 50.6368C104.679 51.0533 104.417 51.4245 104.073 51.7504C103.747 52.0582 103.348 52.3208 102.878 52.5381C102.425 52.7554 101.927 52.9546 101.384 53.1356V53.2443ZM99.0479 61.9358C99.6635 61.9358 100.234 61.8724 100.759 61.7456C101.284 61.6008 101.737 61.3744 102.117 61.0666C102.515 60.7407 102.823 60.3333 103.041 59.8444C103.258 59.3374 103.366 58.7217 103.366 57.9974C103.366 57.1464 103.231 56.4583 102.959 55.9332C102.706 55.4081 102.325 55.0007 101.818 54.711C101.329 54.4212 100.732 54.2311 100.026 54.1406C99.3195 54.0319 98.5318 53.9776 97.6627 53.9776H96.6849C96.1598 53.9776 95.8972 54.3217 95.8972 55.0097V60.8765C95.8972 61.5827 96.5491 61.9358 97.8528 61.9358H99.0479Z" fill="white"/>
<path d="M129.85 22.341C129.85 19.1707 129.871 16.0204 129.85 12.8501C129.85 10.8562 130.472 9.10158 131.917 7.70585C132.9 6.74878 134.063 6.15062 135.387 5.77178C136.631 5.41288 137.855 5.43282 139.099 5.43282C142.348 5.43282 145.618 5.43282 148.868 5.43282C150.593 5.43282 152.218 5.81166 153.663 6.72885C155.789 8.06475 156.913 10.0586 156.993 12.5709C157.053 14.3854 157.013 16.2198 157.033 18.0342C157.033 22.8794 157.033 27.7046 157.033 32.5497C157.033 33.2277 156.993 33.2875 156.291 33.2875C155.147 33.2875 154.024 33.2675 152.88 33.2875C152.419 33.2875 152.279 33.128 152.279 32.6694C152.299 30.6954 152.279 28.7215 152.279 26.7475C152.279 26.0496 152.218 25.9898 151.496 25.9898C146.1 25.9898 140.703 25.9898 135.307 25.9898C134.605 25.9898 134.525 26.0696 134.525 26.7674C134.525 28.7015 134.525 30.6356 134.525 32.5896C134.525 33.1878 134.444 33.2675 133.843 33.2875C132.699 33.2875 131.576 33.2675 130.432 33.3074C129.951 33.3273 129.79 33.1479 129.79 32.6694C129.85 29.2 129.85 25.7705 129.85 22.341ZM143.432 21.8027C146.16 21.8027 148.908 21.8027 151.637 21.8027C152.038 21.8027 152.319 21.7229 152.319 21.2444C152.299 18.3532 152.299 15.4421 152.299 12.551C152.299 11.913 152.018 11.3746 151.657 10.8761C150.975 9.93901 149.992 9.61999 148.908 9.61999C145.257 9.60005 141.606 9.60005 137.935 9.61999C136.992 9.61999 136.089 9.87919 135.407 10.6169C134.745 11.3148 134.545 12.1522 134.565 13.0694C134.565 15.7412 134.565 18.3931 134.565 21.0649C134.565 21.7428 134.645 21.8027 135.307 21.8027C138.015 21.8027 140.723 21.8027 143.432 21.8027Z" fill="white"/>
<path d="M89.2429 19.3608C89.2429 14.9708 89.2429 10.5808 89.2429 6.19088C89.2429 5.45257 89.2429 5.43262 89.9959 5.43262C95.3853 5.43262 102.042 5.45257 107.451 5.43262C108.6 5.43262 109.73 5.51243 110.8 5.91152C112.702 6.58997 114.227 7.76728 115.139 9.66295C115.634 10.7006 115.852 11.7981 115.852 12.9355C115.852 17.2257 115.852 21.5159 115.852 25.806C115.852 28.46 114.762 30.5352 112.583 32.0119C111.552 32.6903 110.383 33.0495 109.175 33.2291C108.62 33.3089 108.065 33.3089 107.491 33.3089C102.101 33.3089 95.4447 33.3089 90.0355 33.3089C89.2627 33.3089 89.2627 33.3089 89.2627 32.4908C89.2429 28.1008 89.2429 23.7308 89.2429 19.3608ZM93.8992 19.3408C93.8992 22.334 93.8992 25.3471 93.8992 28.3403C93.8992 28.9588 94.0181 29.1185 94.5332 29.1185C98.5159 29.1185 103.746 29.1384 107.728 29.0985C108.323 29.0985 108.957 28.9588 109.492 28.6994C110.661 28.1008 111.156 27.0632 111.156 25.7262C111.136 22.1943 111.156 18.6624 111.156 15.1304C111.156 14.2125 111.156 13.3146 111.117 12.3967C111.077 11.4588 110.582 10.7604 109.848 10.2017C109.096 9.64299 108.204 9.56318 107.312 9.56318C103.587 9.54322 98.5951 9.56318 94.8701 9.56318C94.0181 9.56318 93.9388 9.64299 93.9388 10.501C93.8992 13.4343 93.8992 16.3876 93.8992 19.3408Z" fill="white"/>
<path d="M230.364 28.2804C230.364 26.9834 230.325 25.6863 230.383 24.4092C230.423 23.5911 230.207 23.0723 229.462 22.6732C227.816 21.7753 226.21 20.7975 224.603 19.8596C223.427 19.1812 222.252 18.5227 221.115 17.8043C220.018 17.1259 219.41 16.0883 219.41 14.7713C219.391 11.8579 219.41 8.94459 219.391 6.01129C219.391 5.59225 219.548 5.45257 219.94 5.45257C221.076 5.47253 222.232 5.47253 223.369 5.45257C223.839 5.45257 224.035 5.63216 224.015 6.13102C223.996 8.326 224.094 10.5409 223.976 12.7359C223.878 14.3123 224.583 15.1304 225.857 15.769C227.268 16.4674 228.62 17.2855 230.011 18.0438C230.775 18.4628 231.5 18.9018 232.284 19.281C232.519 19.3807 232.891 19.3608 233.107 19.2411C235.262 18.0837 237.398 16.9064 239.534 15.7091C239.867 15.5295 240.2 15.31 240.533 15.0905C241.101 14.7114 241.337 14.1726 241.337 13.4942C241.317 11.0598 241.337 8.62532 241.337 6.19088C241.337 5.45257 241.356 5.43262 242.081 5.43262C243.198 5.43262 244.295 5.43262 245.412 5.43262C245.804 5.43262 246 5.5723 246 6.03125C245.98 8.84482 245.98 11.6584 245.98 14.4919C245.98 16.208 245.099 17.3653 243.668 18.1635C242.414 18.8819 241.16 19.6202 239.906 20.3585C238.652 21.0968 237.398 21.8351 236.164 22.5535C235.889 22.7131 235.537 22.8129 235.341 23.0523C235.164 23.2519 235.066 23.6111 235.066 23.8904C235.047 26.7439 235.047 29.5974 235.047 32.4509C235.047 33.269 235.027 33.2889 234.243 33.3089C233.205 33.3089 232.147 33.3089 231.108 33.3089C230.442 33.3089 230.403 33.269 230.403 32.6105C230.364 31.1538 230.364 29.7171 230.364 28.2804Z" fill="white"/>
<path d="M187.464 19.3907C187.464 14.9776 187.464 10.5646 187.464 6.15149C187.464 5.45259 187.484 5.45259 188.153 5.43262C189.227 5.43262 190.321 5.43262 191.396 5.43262C192.186 5.43262 192.227 5.47255 192.227 6.25133C192.227 13.48 192.227 20.7087 192.227 27.9373C192.227 28.0771 192.227 28.2368 192.227 28.3766C192.227 29.1554 192.328 29.2353 193.098 29.2353C197.456 29.2353 209.396 29.2353 213.754 29.2353C214.646 29.2353 214.686 29.2952 214.686 30.1738C214.686 30.9925 214.686 31.7913 214.686 32.61C214.686 33.209 214.605 33.2889 213.977 33.3089C212.112 33.3089 202.624 33.3089 200.76 33.3089C196.564 33.3089 192.348 33.3089 188.153 33.3089C187.464 33.3089 187.443 33.2889 187.443 32.61C187.464 28.2169 187.464 23.8038 187.464 19.3907Z" fill="white"/>
<path d="M169.704 19.3708C169.704 14.9577 169.704 10.5446 169.704 6.13152C169.704 5.45259 169.723 5.43262 170.362 5.43262C171.414 5.43262 172.466 5.43262 173.5 5.43262C173.951 5.43262 174.139 5.59237 174.139 6.11155C174.12 14.9577 174.12 23.8038 174.139 32.63C174.139 33.1292 173.951 33.3089 173.519 33.3089C172.448 33.3089 171.395 33.3089 170.324 33.3089C169.742 33.3089 169.704 33.2889 169.704 32.6699C169.704 28.3567 169.704 24.0434 169.704 19.7302C169.704 19.6104 169.704 19.4906 169.704 19.3708Z" fill="white"/>
<g clip-path="url(#clip1_270_1464)">
<path d="M11.6404 59.909L28.4801 42.9141H16.9173L0 59.909H11.6404Z" fill="white" fill-opacity="0.6"/>
<path d="M38.8789 64.9532L16.9174 42.9141H28.4801L50.4416 64.9532H38.8789Z" fill="white"/>
<path d="M78.3786 31.041L59.0556 36.0852L63.2461 40.3533L49.1224 54.6322L38.8789 64.9533H50.4417L69.0663 46.2511L73.1016 50.364L78.3786 31.041Z" fill="white" fill-opacity="0.6"/>
<path d="M59.4435 40.3533L53.7009 34.6107L62.2372 32.4378V0H50.6744V49.2L59.4435 40.3533Z" fill="white"/>
<path d="M44.6214 55.2528L44.9318 54.9424V11.7178H33.4467V44.0004L44.6214 55.2528Z" fill="white" fill-opacity="0.6"/>
<path d="M27.704 23.3584H16.2189V40.1205H27.704V23.3584Z" fill="white"/>
</g>
</g>
<defs>
<clipPath id="clip0_270_1464">
<rect width="247" height="65" fill="white"/>
</clipPath>
<clipPath id="clip1_270_1464">
<rect width="78.3785" height="64.9533" fill="white"/>
</clipPath>
</defs>
</svg>
